<svg width="9" height="12" viewBox="0 0 14 17" fill="none" xmlns="http://www.w3.org/2000/svg">
<path d="M7.00001 0C7.57992 0 8.05001 0.465994 8.05001 1.04082V13.235L12.1675 8.67335C12.5542 8.24496 13.218 8.2084 13.6501 8.59169C14.0823 8.97499 14.1191 9.63298 13.7325 10.0614L7.78251 16.6532C7.58333 16.8739 7.29874 17 7.00001 17C6.70129 17 6.4167 16.8739 6.21751 16.6532L0.267512 10.0614C-0.119167 9.63298 -0.0822912 8.97499 0.349874 8.59169C0.78204 8.2084 1.44584 8.24496 1.83252 8.67335L5.95001 13.235V1.04082C5.95001 0.465994 6.42012 0 7.00001 0Z" fill="#3EECAC"/>
</svg>
