<svg width="18" height="28" viewBox="0 0 24 38" fill="none" xmlns="http://www.w3.org/2000/svg">
<path d="M23.9513 26.125V11.875C23.9513 5.32713 18.579 0 11.9756 0C5.37227 0 0 5.32713 0 11.875V26.125C0 32.6729 5.37227 38 11.9756 38C18.579 38 23.9513 32.6717 23.9513 26.125ZM2.39513 26.125V11.875C2.39513 6.63694 6.69318 2.375 11.9756 2.375C17.2581 2.375 21.5561 6.63694 21.5561 11.875V26.125C21.5561 31.3631 17.2581 35.625 11.9756 35.625C6.69318 35.625 2.39513 31.3631 2.39513 26.125Z" fill="#3EECAC"/>
<path d="M15.1157 13.2833V9.72082C15.1157 8.08326 13.7732 6.75208 12.1218 6.75208C10.4703 6.75208 9.12787 8.08326 9.12787 9.72082V13.2833C9.12787 14.9209 10.4703 16.2521 12.1218 16.2521C13.7732 16.2521 15.1157 14.9209 15.1157 13.2833ZM11.523 13.2833V9.72082C11.523 9.39426 11.7924 9.12707 12.1218 9.12707C12.4511 9.12707 12.7206 9.39426 12.7206 9.72082V13.2833C12.7206 13.4408 12.6575 13.5918 12.5452 13.7032C12.4329 13.8145 12.2806 13.8771 12.1218 13.8771C11.963 13.8771 11.8107 13.8145 11.6984 13.7032C11.5861 13.5918 11.523 13.4408 11.523 13.2833Z" fill="#3EECAC"/>
</svg>
