<svg width="175" height="143" viewBox="0 0 175 143" fill="none" xmlns="http://www.w3.org/2000/svg">
<path d="M170.138 10.8889H154.894V54.4443H174.222L170.138 10.8889Z" fill="#0171B9"/>
<path d="M39.7443 38.111C40.0166 38.111 40.561 38.111 40.8332 38.111L77.5831 30.761L77.8553 30.2166C78.672 27.7666 80.5775 25.5888 83.2998 24.4999C84.6609 23.9555 86.022 23.6833 87.3831 23.6833H106.166C107.255 23.6833 108.072 24.4999 108.072 25.5888C108.072 26.6777 107.255 27.4944 106.166 27.4944H87.3831C86.5664 27.4944 85.4775 27.7666 84.9331 28.0388C83.0275 28.8555 81.6664 30.761 81.3942 32.6666V33.211C81.3942 33.7555 81.3942 34.0277 81.3942 34.2999C81.6664 37.2943 84.1164 39.7443 87.1109 39.7443L106.711 40.2888C108.344 40.2888 109.977 40.8332 111.339 41.3777C111.339 41.3777 111.611 41.3777 111.611 41.6499L130.122 51.7221C131.211 52.2665 132.3 52.5387 133.388 52.5387H150.811V13.8833H146.455C145.366 13.8833 144.277 13.6111 143.188 13.3388L103.716 0.272221C102.9 0.272221 102.083 0 101.266 0C99.0886 0 96.9108 0.544443 95.0053 1.36111L37.0221 26.9499C35.661 27.4944 34.8443 28.5832 34.2999 29.9444C33.7555 31.5777 34.0277 33.7555 35.1166 35.3888C35.9332 37.0221 37.8388 38.111 39.7443 38.111ZM119.233 107.255V65.8776C119.233 65.0609 118.416 64.2442 117.6 64.2442H114.061V65.3331C114.061 65.6054 114.061 65.6053 114.061 65.8776V107.255H119.233ZM81.9386 98.2719C77.3109 98.2719 73.772 101.811 73.2276 106.166V106.983H90.922V106.166C90.3775 101.811 86.5664 98.2719 81.9386 98.2719Z" fill="#0171B9"/>
<path d="M94.7331 107.255H101.266V81.1221L100.722 80.8499C97.9997 80.0332 95.8219 77.8555 95.0053 74.861L94.7331 74.3166H69.1442L68.872 74.861C68.0554 77.5832 65.8776 80.0332 63.1554 80.8499L62.6109 81.1221V107.255H69.1442V106.439C69.4165 99.6332 75.1331 94.461 81.9387 94.461C88.7442 94.461 94.1886 99.6332 94.7331 106.439V107.255Z" fill="#0171B9"/>
<path d="M110.25 107.255V65.8778C110.25 65.3334 109.977 64.789 109.433 64.5167V64.2445H54.9887C54.172 64.2445 53.3554 65.0612 53.3554 65.8778V107.255H58.5276V79.2167C58.5276 78.1278 59.3442 77.3111 60.4331 77.3111C62.8831 77.3111 65.0609 75.1334 65.0609 72.4111C65.0609 71.3223 65.8776 70.5056 66.9664 70.5056H96.0941C97.183 70.5056 97.9997 71.3223 97.9997 72.4111C97.9997 75.1334 100.177 77.3111 102.627 77.3111C103.716 77.3111 104.533 78.1278 104.533 79.2167V106.983H110.25V107.255Z" fill="#0171B9"/>
<path d="M123.044 107.256H127.4C128.488 107.256 129.305 108.072 129.305 109.161C129.305 110.25 128.488 111.067 127.4 111.067H36.4777C35.3888 111.067 34.5721 110.25 34.5721 109.161C34.5721 108.072 35.3888 107.256 36.4777 107.256H49.8165V92.0114H0V142.1H163.877V91.7391H123.044V107.256Z" fill="#2C3A45"/>
</svg>
