<svg width="40" height="40" viewBox="0 0 53 45" fill="none" xmlns="http://www.w3.org/2000/svg">
<path d="M4.13385 3.06458C0.118489 6.65654 0.940298 10.4722 0.940298 22.064C0.940298 33.6815 0.60391 35.8139 2.22198 38.7036C3.57391 41.1203 6.15644 42.9355 9.1967 43.6121C11.6323 44.1512 13.2504 44.076 26.4419 44.076C37.5001 44.076 40.9406 44.2465 43.8084 43.6084C48.058 42.6641 51.5155 39.6956 51.9882 34.5194C52.0542 33.797 52.0542 10.3438 51.9861 9.60675C51.4836 4.09321 47.5428 0.91564 42.35 0.272058C41.1578 0.123539 40.9193 0.0795337 34.8133 0.0703658C13.1546 0.0795337 8.40683 -0.751072 4.13385 3.06458V3.06458Z" fill="url(#paint0_linear)"/>
<path d="M26.4845 5.82592C18.7539 5.82592 11.413 5.23368 8.60907 11.4311C7.45088 13.9908 7.61907 17.3151 7.61907 22.075C7.61907 26.2519 7.46365 30.1775 8.60907 32.717C11.4066 38.9181 18.8072 38.3241 26.4802 38.3241C33.8829 38.3241 41.5154 38.9878 44.3535 32.717C45.5138 30.1317 45.3435 26.8569 45.3435 22.075C45.3435 15.7272 45.7501 11.6292 42.1754 8.55244C38.5561 5.43537 33.6614 5.82592 26.4759 5.82592H26.4845ZM24.794 8.75413C34.0468 8.74129 41.4239 7.64115 41.8391 15.5072C41.9924 18.4207 41.9924 25.722 41.8391 28.6355C41.4367 36.221 34.7302 35.3885 26.4866 35.3885C19.2223 35.3885 15.62 35.6104 13.1929 33.5183C10.7296 31.3969 11.0234 28.3641 11.0234 22.0677C11.0234 14.6032 10.2037 9.18502 18.8646 8.84214C20.6041 8.7743 21.279 8.75413 24.794 8.75046V8.75413ZM36.5548 11.4513C35.3051 11.4513 34.2916 12.3241 34.2916 13.4004C34.2916 14.4767 35.3051 15.3495 36.5548 15.3495C37.8045 15.3495 38.818 14.4767 38.818 13.4004C38.818 12.3241 37.8045 11.4513 36.5548 11.4513ZM26.4845 13.7304C21.1342 13.7304 16.7973 17.4672 16.7973 22.075C16.7973 26.6828 21.1342 30.4177 26.4845 30.4177C31.8347 30.4177 36.1694 26.6828 36.1694 22.075C36.1694 17.4672 31.8347 13.7304 26.4845 13.7304ZM26.4845 16.6586C29.9569 16.6586 32.7715 19.0844 32.7715 22.075C32.7715 25.0655 29.9569 27.4914 26.4845 27.4914C23.012 27.4914 20.1974 25.0655 20.1974 22.075C20.1974 19.0826 23.012 16.6586 26.4845 16.6586Z" fill="white"/>
<defs>
<linearGradient id="paint0_linear" x1="4.27131" y1="41.2217" x2="45.5456" y2="-0.258931" gradientUnits="userSpaceOnUse">
<stop stop-color="#FFDD55"/>
<stop offset="0.5" stop-color="#FF543E"/>
<stop offset="1" stop-color="#C837AB"/>
</linearGradient>
</defs>
</svg>
