<svg width="57" height="61" viewBox="0 0 57 61" fill="none" xmlns="http://www.w3.org/2000/svg">
<path d="M51.5072 7.18906C51.3037 7.11788 51.1003 7.0467 50.8969 6.97552C50.6934 6.90434 50.49 6.83316 50.2865 6.83316C50.0831 6.83316 49.9475 6.76199 49.8118 6.69081C49.6762 6.61963 49.6084 6.47727 49.6084 6.33492C49.6084 6.19256 49.6762 6.0502 49.744 5.97902C49.8119 5.90784 49.9475 5.83667 50.1509 5.83667C50.2865 5.83667 50.4222 5.90784 50.5578 5.90784C50.6256 5.90784 50.6256 5.97902 50.6934 5.97902C50.7612 6.0502 50.829 6.0502 50.8969 6.12138C50.9647 6.19256 51.1003 6.19256 51.1681 6.19256C51.3715 6.19256 51.5072 6.0502 51.6428 5.83667C51.7784 5.62313 51.8462 5.48077 51.8462 5.33842C51.8462 5.26724 51.7784 5.12488 51.6428 4.98252H51.575L51.5072 4.91134C51.4394 4.84017 51.3716 4.84017 51.2359 4.76899C51.1003 4.69781 50.9647 4.62663 50.7612 4.62663V4.12838C50.7612 3.98602 50.7612 3.84367 50.7612 3.77249C50.7612 3.70131 50.6934 3.63013 50.6256 3.55895C50.49 3.4166 50.3544 3.4166 50.2187 3.4166C49.9475 3.4166 49.8119 3.48777 49.744 3.63013C49.6762 3.70131 49.6762 3.91485 49.6762 4.12838V4.69781C49.2693 4.76899 48.9303 4.98252 48.7268 5.26724C48.5234 5.55195 48.3878 5.90784 48.3878 6.33492C48.3878 6.76199 48.4556 7.0467 48.659 7.26024C48.8625 7.47377 49.0659 7.68731 49.2693 7.75849C49.5406 7.82966 49.744 7.97202 50.0153 7.97202C50.2865 8.0432 50.49 8.11438 50.6256 8.18556C50.7612 8.25674 50.8969 8.39909 50.8969 8.54145C50.8969 8.96852 50.6934 9.11088 50.2187 9.11088C49.9475 9.11088 49.744 8.96852 49.5406 8.75498C49.2694 8.47027 49.1337 8.39909 48.9303 8.39909C48.7947 8.39909 48.659 8.47027 48.5234 8.61263C48.32 8.82616 48.1843 8.96852 48.1843 9.11088C48.1843 9.25323 48.2522 9.39559 48.3878 9.53795L48.5234 9.68031C48.5912 9.75148 48.7268 9.89384 48.9303 10.0362C49.1337 10.1786 49.3372 10.2497 49.6084 10.3209V10.8903C49.6084 11.1039 49.6084 11.2462 49.6762 11.3886C49.6762 11.4598 49.744 11.5309 49.8118 11.5309C49.8797 11.5309 50.0153 11.6021 50.1509 11.6021C50.2865 11.6021 50.3544 11.6021 50.49 11.5309C50.5578 11.5309 50.6256 11.4598 50.6934 11.3174C50.7612 11.2462 50.7612 11.1039 50.7612 10.8192V10.1786C51.1681 10.1074 51.5072 9.89384 51.7784 9.60913C52.0497 9.32441 52.1853 8.89734 52.1853 8.39909C52.1853 8.0432 52.1175 7.75848 51.9819 7.54495C51.8462 7.47377 51.7106 7.26024 51.5072 7.18906ZM7.90348 50.0385C7.76785 49.9674 7.63223 49.8962 7.4966 49.8962C7.36097 49.8962 7.22535 49.825 7.08972 49.825C6.9541 49.825 6.88628 49.7538 6.75066 49.6826C6.61503 49.6115 6.61503 49.5403 6.61503 49.4691C6.61503 49.3979 6.68284 49.3267 6.75066 49.2556C6.81847 49.1844 6.88628 49.1844 7.02191 49.1844C7.15754 49.1844 7.22535 49.1844 7.29316 49.2556L7.36097 49.3267C7.36097 49.3267 7.42879 49.3979 7.4966 49.3979C7.56441 49.4691 7.63223 49.4691 7.70004 49.4691C7.83566 49.4691 7.90348 49.3979 8.0391 49.2556C8.10692 49.1132 8.17473 48.9709 8.17473 48.8997C8.17473 48.8285 8.10692 48.7573 8.0391 48.615L7.97129 48.5438C7.90348 48.5438 7.83566 48.4726 7.76785 48.4014C7.56441 48.3302 7.4966 48.2591 7.36097 48.2591V47.9032C7.36097 47.7608 7.36097 47.6896 7.36097 47.6185C7.36097 47.5473 7.29316 47.4761 7.29316 47.4761C7.22535 47.4049 7.15754 47.4049 7.02191 47.4049C6.81847 47.4049 6.75066 47.4761 6.68284 47.5473C6.68284 47.6185 6.61503 47.6896 6.61503 47.9032V48.2591C6.34378 48.3302 6.07253 48.4726 5.9369 48.6861C5.80128 48.8997 5.66565 49.1132 5.66565 49.3979C5.66565 49.6826 5.73346 49.8962 5.86909 50.0385C6.00472 50.1809 6.14034 50.3232 6.27597 50.3944C6.41159 50.4656 6.61503 50.5368 6.81847 50.5368C7.02191 50.608 7.15754 50.608 7.22535 50.6791C7.36097 50.7503 7.42879 50.8215 7.42879 50.8927C7.42879 51.1774 7.29316 51.3197 6.9541 51.3197C6.81847 51.3197 6.61503 51.2486 6.47941 51.035C6.27597 50.8215 6.14034 50.7503 6.07253 50.7503C6.00472 50.7503 5.86909 50.8215 5.80128 50.8927C5.66565 51.035 5.59784 51.1774 5.59784 51.2486C5.59784 51.3197 5.66565 51.4621 5.73346 51.5333L5.80128 51.6756C5.86909 51.7468 5.9369 51.818 6.07253 51.9603C6.20815 52.0315 6.34378 52.1027 6.54722 52.1739V52.601C6.54722 52.7433 6.54722 52.8857 6.61503 52.9568C6.61503 53.028 6.68284 53.028 6.75066 53.0992C6.81847 53.1704 6.88628 53.0992 6.9541 53.0992C7.02191 53.0992 7.08972 53.0992 7.15754 53.0992C7.22535 53.0992 7.22535 53.028 7.29316 52.9568C7.29316 52.8857 7.36097 52.8145 7.36097 52.601V52.1739C7.63223 52.1027 7.90348 51.9604 8.0391 51.7468C8.24254 51.5333 8.31036 51.2486 8.31036 50.8927C8.31036 50.6791 8.24254 50.4656 8.17473 50.3232C8.10692 50.1809 8.0391 50.1097 7.90348 50.0385Z" fill="black"/>
<path d="M57 7.82964C57 3.91482 53.9484 0.711785 50.2187 0.711785C46.489 0.711785 43.4374 3.91482 43.4374 7.82964C43.4374 11.7445 46.489 14.9475 50.2187 14.9475C53.9484 14.9475 57 11.7445 57 7.82964ZM50.2187 13.6663C47.1671 13.6663 44.6581 11.0327 44.6581 7.82964C44.6581 4.62661 47.1671 1.993 50.2187 1.993C53.2703 1.993 55.7794 4.62661 55.7794 7.82964C55.7794 11.0327 53.2703 13.6663 50.2187 13.6663ZM6.95408 45.3407C4.24156 45.3407 2.00374 47.6896 2.00374 50.5368C2.00374 53.3839 4.24156 55.7328 6.95408 55.7328C9.6666 55.7328 11.9044 53.3839 11.9044 50.5368C11.9044 47.6184 9.6666 45.3407 6.95408 45.3407ZM6.95408 54.3804C4.91969 54.3804 3.29218 52.6721 3.29218 50.5368C3.29218 48.4014 4.91969 46.6931 6.95408 46.6931C8.98847 46.6931 10.616 48.4014 10.616 50.5368C10.616 52.6721 8.98847 54.3804 6.95408 54.3804ZM35.3677 5.26721C33.4689 5.26721 31.9092 6.90432 31.9092 8.89732C31.9092 10.8903 33.4689 12.5274 35.3677 12.5274C37.2664 12.5274 38.8261 10.8903 38.8261 8.89732C38.8261 6.90432 37.2664 5.26721 35.3677 5.26721ZM35.3677 11.175C34.1471 11.175 33.1977 10.1074 33.1977 8.89732C33.1977 7.68728 34.2149 6.6196 35.3677 6.6196C36.5205 6.6196 37.5377 7.68728 37.5377 8.89732C37.5377 10.1074 36.5205 11.175 35.3677 11.175ZM18.7535 53.8821C16.9226 53.8821 15.4307 55.4481 15.4307 57.4411C15.4307 59.4341 16.9226 61 18.7535 61C20.5845 61 22.0764 59.4341 22.0764 57.4411C22.0764 55.4481 20.5845 53.8821 18.7535 53.8821ZM18.7535 59.6476C17.6007 59.6476 16.6513 58.6511 16.6513 57.4411C16.6513 56.231 17.6007 55.2345 18.7535 55.2345C19.9063 55.2345 20.8557 56.231 20.8557 57.4411C20.8557 58.6511 19.9063 59.6476 18.7535 59.6476ZM45.6752 49.1844C45.404 48.8997 45.0649 48.8997 44.7937 49.1844L43.5052 50.5368L42.2168 49.1844C41.9455 48.8997 41.6065 48.8997 41.3352 49.1844C41.064 49.4691 41.064 49.825 41.3352 50.1097L42.6237 51.4621L41.3352 52.8145C41.064 53.0992 41.064 53.4551 41.3352 53.7398C41.4708 53.8821 41.6065 53.9533 41.8099 53.9533C41.9455 53.9533 42.149 53.8821 42.2846 53.7398L43.573 52.3874L44.8615 53.7398C44.9971 53.8821 45.1327 53.9533 45.3362 53.9533C45.4718 53.9533 45.6752 53.8821 45.8109 53.7398C46.0821 53.4551 46.0821 53.0992 45.8109 52.8145L44.5224 51.4621L45.8109 50.1097C45.8787 49.8961 45.8787 49.4691 45.6752 49.1844ZM12.7182 0.213536C12.4469 -0.0711785 12.1079 -0.0711785 11.8366 0.213536L10.5482 1.56593L9.25972 0.213536C8.98847 -0.0711785 8.6494 -0.0711785 8.37815 0.213536C8.1069 0.49825 8.1069 0.854142 8.37815 1.13886L9.6666 2.49125L8.37815 3.84364C8.1069 4.12836 8.1069 4.48425 8.37815 4.76896C8.51378 4.91132 8.6494 4.9825 8.85284 4.9825C9.05628 4.9825 9.19191 4.91132 9.32753 4.76896L10.616 3.41657L11.9044 4.76896C12.04 4.91132 12.1757 4.9825 12.3791 4.9825C12.5147 4.9825 12.7182 4.91132 12.8538 4.76896C13.1251 4.48425 13.1251 4.12836 12.8538 3.84364L11.5654 2.49125L12.8538 1.13886C12.9894 0.854142 12.9894 0.427071 12.7182 0.213536ZM52.0497 43.1342C50.5578 43.9172 50.0153 45.839 50.7612 47.4049C51.3037 48.4726 52.3887 49.1132 53.4737 49.1132C53.9484 49.1132 54.4231 48.9708 54.83 48.7573C55.5759 48.4014 56.0506 47.6896 56.3219 46.9067C56.5253 46.1237 56.4575 45.2695 56.1184 44.4866C55.3725 42.9918 53.5415 42.3512 52.0497 43.1342ZM55.1691 46.5508C55.0334 47.049 54.7622 47.4049 54.2875 47.6184C53.4059 48.1167 52.3887 47.6896 51.914 46.8355C51.4393 45.9102 51.7784 44.7713 52.66 44.3442C52.9312 44.2019 53.2025 44.1307 53.4737 44.1307C54.084 44.1307 54.7622 44.4866 55.0334 45.1272C55.2369 45.6254 55.3047 46.1237 55.1691 46.5508ZM3.9025 15.944C5.19094 15.2322 5.73345 13.5239 4.98751 12.1715C4.30938 10.8191 2.68187 10.2497 1.39342 10.9615C0.104976 11.6733 -0.369714 13.3816 0.308415 14.734C0.850918 15.6593 1.73249 16.2287 2.74968 16.2287C3.15656 16.2287 3.56343 16.1575 3.9025 15.944ZM1.46123 14.0933C1.12217 13.3816 1.32561 12.4562 2.07155 12.1003C2.27499 11.958 2.47843 11.958 2.68187 11.958C3.22437 11.958 3.69906 12.2427 3.97031 12.741C4.30938 13.4527 4.10594 14.3781 3.36 14.734C2.68187 15.0898 1.8003 14.8051 1.46123 14.0933ZM44.0477 36.2299V30.0373L55.9828 25.6954C56.2541 25.6243 56.3897 25.3396 56.3897 25.0548C56.3897 24.7701 56.2541 24.5566 55.9828 24.4142L33.1299 16.1575C33.1299 16.1575 33.1299 16.1575 33.062 16.1575L28.722 14.5916C28.5864 14.5204 28.4508 14.5204 28.3151 14.5916L1.05436 24.4142C0.783105 24.4854 0.647479 24.7701 0.647479 25.0548C0.647479 25.3396 0.783105 25.6243 1.05436 25.6954L6.95408 27.8308V34.1657V34.2369C6.41158 35.0198 5.86907 35.4469 5.4622 36.3722C4.445 38.5788 6.07251 39.7176 7.76783 39.7176C9.46316 39.7176 11.1585 38.5788 10.0735 36.3722C9.66659 35.4469 9.12409 35.0198 8.58159 34.2369V34.1657V28.4714L12.9894 30.0373V36.301C12.9894 38.294 14.0066 40.0735 15.6341 40.8565L26.8911 46.1237C27.4336 46.3372 27.9761 46.4796 28.5186 46.4796C29.0611 46.4796 29.6036 46.3372 30.1461 46.1237L41.403 40.8565C42.9627 40.0023 44.0477 38.2229 44.0477 36.2299ZM8.98847 36.8705C9.12409 37.084 9.25972 37.5823 9.12409 37.7958C8.98847 38.0805 8.44596 38.294 7.76783 38.294C7.0897 38.294 6.61501 38.0093 6.41158 37.7958C6.27595 37.5111 6.41158 37.084 6.5472 36.8705C6.75064 36.4434 7.02189 36.1587 7.29314 35.7316C7.42877 35.5893 7.56439 35.3757 7.70002 35.2334C7.83565 35.4469 7.97127 35.5893 8.1069 35.7316C8.51378 36.1587 8.78503 36.4434 8.98847 36.8705ZM10.4125 27.6173L20.7201 24.5566C21.127 24.4142 21.3982 23.916 21.2626 23.4889C21.127 23.133 20.8557 22.8483 20.4488 22.8483C20.381 22.8483 20.3132 22.8483 20.2454 22.8483L7.63221 26.6208L3.15656 24.9837L28.5186 15.8728L32.6552 17.3676C32.6552 17.3676 32.6552 17.3676 32.723 17.3676L53.8806 25.0548L28.5186 34.1657L10.4125 27.6173ZM29.6036 44.8425C28.9255 45.1984 28.1117 45.1984 27.4336 44.8425L16.1766 39.5753C15.0238 39.0058 14.2779 37.7246 14.2779 36.2299V30.4644L28.5186 35.5893L42.7593 30.4644V36.2299C42.7593 37.7246 42.0133 39.0058 40.8605 39.5753L29.6036 44.8425Z" fill="black"/>
</svg>
