<svg width="10" height="16" viewBox="0 0 10 16" fill="none" xmlns="http://www.w3.org/2000/svg">
<path d="M5.07577 8.54499C5.19244 8.36659 5.2716 8.16739 5.30744 7.95939C5.30445 7.75674 5.22168 7.56268 5.07577 7.4162L0.478205 2.83066C0.172455 2.51824 0.00155729 2.10611 1.05907e-05 1.67745C-0.00153611 1.24879 0.166383 0.835525 0.469871 0.521085L0.493205 0.496285C0.645454 0.340123 0.829391 0.215531 1.03369 0.130181C1.23799 0.0448305 1.45832 0.000529316 1.68113 4.71433e-06C1.90393 -0.000519887 2.12449 0.0427432 2.32922 0.12713C2.53395 0.211517 2.71853 0.335242 2.87157 0.490685L9.76083 7.381C9.9125 7.5386 9.99833 7.745 10 7.95939C9.96333 8.1791 9.88207 8.38975 9.76083 8.57939L2.87157 15.5113C2.71824 15.6665 2.53344 15.7899 2.32856 15.874C2.12367 15.958 1.90303 16.0009 1.68023 16C1.45742 15.9991 1.23717 15.9544 1.03302 15.8687C0.828879 15.783 0.645169 15.6581 0.493205 15.5017L0.469871 15.4729C0.166375 15.1564 -0.00139285 14.7415 0.000152388 14.3113C0.00169762 13.8812 0.172442 13.4674 0.478205 13.1529L5.07577 8.54499Z" fill="white"/>
</svg>
