<svg width="209" height="186" viewBox="0 0 209 186" fill="none" xmlns="http://www.w3.org/2000/svg">
<path d="M139.394 55.8842L140.468 40.9747C140.761 37.0032 139.524 33.2921 136.692 29.3532C135.585 27.7906 134.185 26.3582 132.297 24.7631C130.279 23.0378 128.26 21.1497 126.21 19.2942C121.522 14.9646 116.606 10.5047 110.877 6.89131C105.017 3.21278 97.8555 -0.49831 89.4567 0.0550977L80.0814 0.673612C77.4771 0.836379 74.8403 1.19447 72.2685 1.74787L30.6653 10.8303V6.01237C30.6653 4.28704 29.233 2.85469 27.5076 2.85469H3.15768C1.43235 2.85469 0 4.28704 0 6.01237V67.4732C0 69.2311 1.43235 70.6309 3.15768 70.6309H27.5076C28.94 70.6309 30.1119 69.6868 30.47 68.3847C39.8128 74.7326 47.4303 74.7977 54.2665 74.8628C61.9491 74.8954 68.5575 74.9279 77.5422 84.0754C77.8352 84.3684 78.1282 84.5312 78.4537 84.6614C79.8209 103.38 95.4791 118.191 114.49 118.191C134.446 118.191 150.69 101.98 150.69 82.0245C150.69 71.7377 146.328 62.4274 139.394 55.8842ZM24.3499 64.3155H6.31536V9.17005H24.3499V64.3155ZM54.2991 68.5474C46.9746 68.4823 40.0732 68.4172 30.6653 60.637V17.3084L73.6683 7.93302C75.9145 7.41216 78.1933 7.11918 80.472 6.95642L89.8474 6.40301C96.4557 5.94726 102.25 9.00728 107.524 12.2626C112.765 15.5831 117.42 19.8801 121.945 24.0144C124.061 25.9025 126.112 27.8231 128.228 29.6136C129.725 30.8832 130.767 31.99 131.548 33.0642C133.534 35.7987 134.348 38.1426 134.185 40.5841L133.404 51.2941C129.237 48.7224 124.517 46.9645 119.406 46.2809L102.315 29.2229C99.9064 26.7814 95.9349 26.7814 93.4934 29.2229L83.0112 39.7051C81.8067 40.8771 81.1882 42.4396 81.1882 44.0998C81.1882 45.7601 81.8067 47.3552 82.9786 48.5271L89.9776 55.5261C84.0529 60.9951 79.9837 68.3847 78.7141 76.6858C69.4364 68.6451 61.7538 68.58 54.2991 68.5474ZM110.356 46.1182C104.757 46.7367 99.5483 48.6899 95.0559 51.5871L87.5035 44.0998L97.8881 33.6176L110.356 46.1182ZM114.49 111.909C98.0183 111.909 84.6388 98.5291 84.6388 82.0571C84.6388 65.5851 98.0183 52.2056 114.49 52.2056C130.962 52.2056 144.374 65.5851 144.374 82.0571C144.374 98.5291 130.962 111.909 114.49 111.909Z" fill="#6C6CA6"/>
<path d="M114.49 52.1727C98.0183 52.1727 84.6389 65.5522 84.6389 82.0242C84.6389 98.4962 98.0183 111.876 114.49 111.876C130.962 111.876 144.374 98.4962 144.374 82.0242C144.374 65.5522 130.962 52.1727 114.49 52.1727ZM122.857 90.3579C122.433 91.3019 121.847 92.1157 121.099 92.8319C120.317 93.5155 119.406 94.069 118.299 94.4596C117.192 94.9153 115.988 95.1432 114.653 95.2409L114.197 99.7007C114.197 99.7984 114.165 99.896 114.1 99.9937C114.067 100.091 113.969 100.156 113.839 100.222C113.709 100.254 113.514 100.319 113.318 100.352C113.091 100.384 112.798 100.417 112.472 100.417C111.984 100.417 111.658 100.384 111.398 100.352C111.105 100.287 110.877 100.222 110.779 100.156C110.616 100.091 110.519 99.9611 110.454 99.8309C110.421 99.7332 110.389 99.5705 110.421 99.4077L110.877 95.2083C110.291 95.1107 109.705 95.013 109.217 94.8828C108.696 94.7526 108.208 94.5898 107.752 94.427C107.329 94.2643 106.97 94.1015 106.645 93.9387C106.319 93.7434 106.124 93.5807 105.961 93.4179C105.799 93.2551 105.668 93.0272 105.603 92.7343C105.538 92.4087 105.506 91.953 105.506 91.3345C105.506 90.8462 105.506 90.4881 105.538 90.1625C105.571 89.8696 105.636 89.6417 105.701 89.4789C105.766 89.3162 105.864 89.1859 105.961 89.1208C106.059 89.0557 106.189 89.0232 106.319 89.0232C106.515 89.0232 106.775 89.1534 107.101 89.3487C107.459 89.5766 107.882 89.8045 108.435 90.0323C108.989 90.2928 109.64 90.5206 110.389 90.6834C111.17 90.9113 112.049 91.0089 113.091 91.0089C114.686 91.0089 115.923 90.716 116.704 90.13C117.485 89.544 117.908 88.6976 117.908 87.721C117.908 87.07 117.746 86.5166 117.388 86.0934C117.029 85.6376 116.606 85.3121 116.02 84.954C115.467 84.6285 114.816 84.368 114.1 84.1076C113.384 83.8472 112.635 83.5868 111.919 83.2938C111.17 83.0008 110.421 82.6753 109.705 82.2846C109.021 81.8614 108.37 81.4057 107.817 80.8197C107.263 80.2663 106.775 79.5827 106.45 78.7689C106.092 77.955 105.929 76.9784 105.929 75.839C105.929 74.7973 106.092 73.8533 106.45 73.0069C106.808 72.1605 107.296 71.4443 107.947 70.7933C108.598 70.1748 109.412 69.6214 110.356 69.2307C111.3 68.8075 112.374 68.5796 113.579 68.4494L113.937 64.3477C113.969 64.2175 114.002 64.1198 114.035 64.0547C114.1 63.9571 114.197 63.892 114.328 63.8269C114.458 63.7617 114.653 63.7292 114.848 63.6966C115.076 63.6966 115.369 63.6966 115.727 63.6966C116.183 63.6966 116.509 63.6966 116.802 63.7292C117.095 63.7943 117.322 63.8594 117.453 63.9245C117.583 63.9896 117.713 64.1198 117.746 64.25C117.778 64.3803 117.811 64.5105 117.811 64.6732L117.388 68.5796C117.778 68.6448 118.169 68.7099 118.625 68.8075C119.048 68.9052 119.438 69.0354 119.829 69.1656C120.187 69.2958 120.513 69.426 120.838 69.5888C121.131 69.7516 121.359 69.8818 121.457 70.012C121.587 70.1097 121.652 70.2399 121.717 70.3701C121.782 70.4677 121.847 70.6305 121.88 70.7933C121.912 70.9886 121.945 71.2165 121.945 71.4118C121.978 71.6722 121.978 71.9326 121.978 72.2582C121.978 72.6814 121.978 73.0395 121.945 73.2999C121.912 73.5929 121.88 73.8207 121.815 73.9184C121.782 74.0812 121.717 74.1788 121.62 74.2114C121.554 74.2765 121.489 74.309 121.392 74.309C121.196 74.309 120.936 74.2114 120.61 74.0161C120.252 73.8533 119.829 73.6254 119.308 73.4627C118.787 73.2348 118.234 73.0395 117.583 72.8767C116.932 72.7139 116.183 72.6163 115.402 72.6163C114.718 72.6163 114.067 72.6814 113.579 72.8116C113.058 72.9743 112.667 73.1697 112.342 73.3975C111.984 73.658 111.788 73.9184 111.626 74.2765C111.463 74.6346 111.398 74.9927 111.398 75.4159C111.398 76.0669 111.561 76.6203 111.919 77.0435C112.277 77.4993 112.732 77.8574 113.318 78.1829C113.872 78.5084 114.555 78.7689 115.272 79.0618C115.988 79.3223 116.737 79.5827 117.485 79.8757C118.234 80.1686 118.983 80.4942 119.699 80.8848C120.415 81.2755 121.099 81.7312 121.652 82.3172C122.205 82.838 122.661 83.5542 123.019 84.3355C123.377 85.1168 123.54 86.0608 123.54 87.2002C123.508 88.3396 123.28 89.3813 122.857 90.3579Z" fill="#F59393"/>
<path d="M24.35 9.16992H6.31537V64.3154H24.35V9.16992Z" fill="#4FBEE6"/>
<path d="M110.356 46.1181C104.757 46.7366 99.5483 48.6898 95.0559 51.5871L87.5035 44.0998L97.8881 33.6176L110.356 46.1181Z" fill="#FEE6AB"/>
<path d="M134.185 40.5186L133.404 51.2286C129.237 48.6569 124.517 46.899 119.406 46.2154L102.315 29.1574C99.9064 26.7159 95.9349 26.7159 93.4934 29.1574L83.0112 39.6396C81.8067 40.8116 81.1882 42.3741 81.1882 44.0343C81.1882 45.6946 81.8067 47.2897 82.9786 48.4616L89.9776 55.4606C84.0529 60.9296 79.9837 68.3192 78.7141 76.6203C69.4038 68.6773 61.6887 68.6122 54.2665 68.5796C46.942 68.5145 40.0407 68.4494 30.6328 60.6691V17.308L73.6358 7.93263C75.882 7.41177 78.1607 7.11879 80.4394 6.95603L89.8148 6.40262C96.4232 5.94687 102.218 9.00689 107.491 12.2622C112.732 15.5827 117.388 19.8797 121.912 24.014C124.028 25.9021 126.079 27.8228 128.195 29.6132C129.693 30.8828 130.734 31.9896 131.516 33.0638C133.534 35.7658 134.348 38.1096 134.185 40.5186Z" fill="#FEE6AB"/>
<path d="M123.508 87.1353C123.508 88.3398 123.28 89.3815 122.857 90.3581C122.433 91.3022 121.847 92.116 121.099 92.8322C120.317 93.5158 119.406 94.0692 118.299 94.4599C117.192 94.9156 115.988 95.1435 114.653 95.2411L114.197 99.701C114.197 99.7986 114.165 99.8963 114.1 99.9939C114.067 100.092 113.969 100.157 113.839 100.222C113.709 100.254 113.514 100.319 113.318 100.352C113.091 100.385 112.798 100.417 112.472 100.417C111.984 100.417 111.658 100.385 111.398 100.352C111.105 100.287 110.877 100.222 110.779 100.157C110.616 100.092 110.519 99.9614 110.454 99.8312C110.421 99.7335 110.389 99.5707 110.421 99.408L110.877 95.2086C110.291 95.1109 109.705 95.0133 109.217 94.8831C108.696 94.7528 108.208 94.5901 107.752 94.4273C107.329 94.2645 106.97 94.1018 106.645 93.939C106.319 93.7437 106.124 93.5809 105.961 93.4182C105.799 93.2554 105.668 93.0275 105.603 92.7345C105.538 92.409 105.506 91.9532 105.506 91.3347C105.506 90.8464 105.506 90.4883 105.538 90.1628C105.571 89.8698 105.636 89.642 105.701 89.4792C105.766 89.3164 105.864 89.1862 105.961 89.1211C106.059 89.056 106.189 89.0234 106.319 89.0234C106.515 89.0234 106.775 89.1537 107.101 89.349C107.459 89.5768 107.882 89.8047 108.435 90.0326C108.989 90.293 109.64 90.5209 110.389 90.6837C111.17 90.9115 112.049 91.0092 113.091 91.0092C114.686 91.0092 115.923 90.7162 116.704 90.1303C117.485 89.5443 117.908 88.6979 117.908 87.7213C117.908 87.0702 117.746 86.5168 117.388 86.0936C117.03 85.6379 116.606 85.3124 116.02 84.9543C115.467 84.6287 114.816 84.3683 114.1 84.1079C113.384 83.8475 112.635 83.587 111.919 83.294C111.17 83.0011 110.421 82.6755 109.705 82.2849C109.021 81.8617 108.37 81.4059 107.817 80.82C107.263 80.2666 106.775 79.583 106.45 78.7691C106.092 77.9553 105.929 76.9787 105.929 75.8393C105.929 74.7976 106.092 73.8536 106.45 73.0072C106.808 72.1608 107.296 71.4446 107.947 70.7935C108.598 70.175 109.412 69.6216 110.356 69.231C111.3 68.8078 112.374 68.5799 113.579 68.4497L113.937 64.348C113.969 64.2178 114.002 64.1201 114.035 64.055C114.1 63.9573 114.197 63.8922 114.328 63.8271C114.458 63.762 114.653 63.7295 114.848 63.6969C115.076 63.6969 115.369 63.6969 115.727 63.6969C116.183 63.6969 116.509 63.6969 116.802 63.7295C117.095 63.7946 117.322 63.8597 117.453 63.9248C117.583 63.9899 117.713 64.1201 117.746 64.2503C117.778 64.3805 117.811 64.5107 117.811 64.6735L117.388 68.5799C117.778 68.645 118.169 68.7101 118.625 68.8078C119.048 68.9054 119.438 69.0357 119.829 69.1659C120.187 69.2961 120.513 69.4263 120.838 69.5891C121.131 69.7518 121.359 69.882 121.457 70.0123C121.587 70.1099 121.652 70.2401 121.717 70.3703C121.782 70.468 121.847 70.6308 121.88 70.7935C121.912 70.9889 121.945 71.2167 121.945 71.4121C121.978 71.6725 121.978 71.9329 121.978 72.2584C121.978 72.6816 121.978 73.0397 121.945 73.3002C121.913 73.5931 121.88 73.821 121.815 73.9187C121.782 74.0814 121.717 74.1791 121.62 74.2116C121.554 74.2768 121.489 74.3093 121.392 74.3093C121.196 74.3093 120.936 74.2116 120.61 74.0163C120.252 73.8536 119.829 73.6257 119.308 73.4629C118.787 73.235 118.234 73.0397 117.583 72.877C116.932 72.7142 116.183 72.6165 115.402 72.6165C114.718 72.6165 114.067 72.6816 113.579 72.8118C113.058 72.9746 112.667 73.1699 112.342 73.3978C111.984 73.6582 111.788 73.9187 111.626 74.2768C111.463 74.6348 111.398 74.9929 111.398 75.4161C111.398 76.0672 111.561 76.6206 111.919 77.0438C112.277 77.4995 112.732 77.8576 113.318 78.1832C113.872 78.5087 114.555 78.7691 115.272 79.0621C115.988 79.3225 116.737 79.583 117.485 79.8759C118.234 80.1689 118.983 80.4945 119.699 80.8851C120.415 81.2757 121.099 81.7315 121.652 82.3174C122.205 82.8383 122.661 83.5545 123.019 84.3358C123.312 85.0519 123.508 86.0285 123.508 87.1353ZM204.891 117.736C204.793 116.075 203.394 114.741 201.733 114.741H177.351C175.626 114.741 174.193 116.173 174.193 117.898V123.497H164.85C161.302 123.497 157.884 124.279 154.596 125.874L137.668 134.012C136.106 134.761 134.38 135.152 132.623 135.152H109.217C104.529 135.152 101.404 140.295 100.037 144.657L65.4324 130.92C59.8983 128.706 53.648 131.082 50.9135 136.096C49.3835 138.895 49.058 142.085 50.0021 145.146C50.881 148.14 52.8993 150.582 55.6338 152.014L114.783 183.591C117.746 185.154 121.066 186 124.354 186C125.656 186 126.958 185.87 128.228 185.577C138.547 183.493 152.968 178.024 160.651 174.964C162.507 174.216 164.46 173.825 166.478 173.825H174.193V179.359C174.193 181.117 175.626 182.517 177.351 182.517H205.152C206.03 182.517 206.844 182.159 207.463 181.54C208.049 180.922 208.374 180.043 208.309 179.196L204.891 117.736ZM174.226 167.51H166.511C163.711 167.51 160.944 168.031 158.34 169.072C150.82 172.067 136.822 177.373 126.991 179.359C123.898 179.978 120.643 179.489 117.778 177.959L58.6287 146.383C57.3917 145.764 56.4802 144.625 56.057 143.257C55.6012 141.825 55.764 140.36 56.4802 139.058C57.7498 136.747 60.4842 135.64 63.1536 136.714L100.46 151.591C100.557 151.656 100.655 151.721 100.785 151.786C102.771 156.507 105.864 159.306 109.249 159.306H135.325C137.05 159.306 138.482 157.906 138.482 156.149C138.482 154.423 137.05 152.991 135.325 152.991L109.282 153.023C108.793 152.926 107.263 151.461 106.189 148.336C106.059 147.978 105.961 147.62 105.864 147.261C106.678 144.071 108.501 141.565 109.249 141.467H132.655C135.39 141.467 138.059 140.881 140.468 139.709L157.396 131.571C159.805 130.399 162.311 129.845 164.916 129.845H174.258V167.51H174.226ZM180.509 176.201V121.056H198.706L201.831 176.201H180.509Z" fill="#6C6CA6"/>
<path d="M201.864 176.202H180.509V121.056H198.739L201.864 176.202Z" fill="#54BF9F"/>
<path d="M174.226 129.78V167.51H166.511C163.711 167.51 160.944 168.031 158.34 169.072C150.82 172.067 136.822 177.373 126.991 179.359C123.898 179.978 120.643 179.489 117.778 177.959L58.6286 146.383C57.3916 145.764 56.4801 144.625 56.0569 143.257C55.6012 141.825 55.7639 140.36 56.4801 139.058C57.7497 136.747 60.4842 135.64 63.1536 136.714L100.46 151.591C100.557 151.656 100.655 151.721 100.785 151.786C102.771 156.507 105.864 159.306 109.249 159.306H135.324C137.05 159.306 138.482 157.906 138.482 156.149C138.482 154.423 137.05 152.991 135.324 152.991L109.282 153.023C108.793 152.926 107.263 151.461 106.189 148.336C106.059 147.978 105.961 147.62 105.864 147.262C106.677 144.071 108.5 141.565 109.249 141.467H132.655C135.39 141.467 138.059 140.881 140.468 139.709L157.396 131.571C159.805 130.399 162.311 129.845 164.915 129.845H174.226V129.78Z" fill="#FEE6AB"/>
</svg>
