<svg width="158" height="157" viewBox="0 0 158 157" fill="none" xmlns="http://www.w3.org/2000/svg">
<path d="M157.049 106.398C157.036 103.583 154.754 101.304 151.94 101.304H149.451V92.649C149.451 91.8383 148.793 91.1798 147.983 91.1798H141.85V82.5121C141.85 81.7017 141.192 81.0432 140.381 81.0432H98.6902V73.5816H122.844C123.543 73.5816 124.11 73.015 124.11 72.3153C124.11 71.6157 123.543 71.049 122.844 71.049H98.6902V65.9396H135.493C136.19 65.9396 136.76 65.3729 136.76 64.6733C136.76 63.9737 136.19 63.407 135.493 63.407H98.6902V38.1054H107.657C108.357 38.1054 108.924 37.5384 108.924 36.8391C108.924 36.1398 108.357 35.5728 107.657 35.5728H98.6902V5.94742C98.6902 2.66426 96.0259 0 92.7427 0H16.0138C14.5683 0 13.2381 0.515061 12.2079 1.37614C11.4276 2.02606 10.8163 2.87542 10.451 3.84444C10.2012 4.49785 10.0667 5.20538 10.0667 5.94742V35.5731H1.26629C0.566979 35.5731 0 36.1401 0 36.8394C0 37.5387 0.566979 38.1057 1.26629 38.1057H10.0663V150.909C10.0663 154.192 12.7306 156.856 16.0138 156.856H92.7427C96.0259 156.856 98.6902 154.192 98.6902 150.909V141.826H141.85V145.469C141.85 146.343 142.559 147.052 143.433 147.052H151.436C154.535 147.052 157.052 144.539 157.052 141.436V106.376C157.052 106.382 157.049 106.388 157.049 106.398ZM61.9692 5.06198H67.0343C67.7336 5.06198 68.3006 5.62895 68.3006 6.32826C68.3006 7.02757 67.7336 7.59455 67.0343 7.59455H61.9692C61.2698 7.59455 60.7029 7.02757 60.7029 6.32826C60.7029 5.62895 61.2698 5.06198 61.9692 5.06198ZM41.7086 5.06198H54.3714C55.0708 5.06198 55.6377 5.62895 55.6377 6.32826C55.6377 7.02757 55.0708 7.59455 54.3714 7.59455H41.7086C41.0093 7.59455 40.4423 7.02757 40.4423 6.32826C40.4423 5.62895 41.0093 5.06198 41.7086 5.06198ZM54.3667 150.705C52.668 150.705 51.2912 149.328 51.2912 147.629C51.2912 145.931 52.6683 144.554 54.3667 144.554C56.0651 144.554 57.4422 145.931 57.4422 147.629C57.4422 149.328 56.0654 150.705 54.3667 150.705ZM93.6269 35.5728H74.7225C74.0232 35.5728 73.4563 36.1398 73.4563 36.8391C73.4563 37.5384 74.0232 38.1054 74.7225 38.1054H93.6269V137.24C93.6269 138.37 92.7092 139.288 91.579 139.288H17.1658C16.0324 139.288 15.1175 138.37 15.1175 137.24V38.1054H67.1432C67.8425 38.1054 68.4095 37.5384 68.4095 36.8391C68.4095 36.1398 67.8425 35.5728 67.1432 35.5728H15.1175V17.2402C15.1175 16.11 16.0324 15.1919 17.1658 15.1919H91.5793C92.7092 15.1919 93.6272 16.11 93.6272 17.2402V35.5728H93.6269ZM141.85 93.7124H146.304C146.643 93.7124 146.919 93.9878 146.919 94.3262V101.304H98.6902V93.7124H139.318H141.85ZM138.704 83.5761C139.043 83.5761 139.318 83.8512 139.318 84.1899V91.1798H98.6902V83.5758H138.704V83.5761ZM154.52 109.399C154.52 110.339 153.865 111.174 152.937 111.352C152.63 111.412 152.31 111.444 151.984 111.444H143.433C142.559 111.444 141.85 112.153 141.85 113.026V139.293H98.6902V103.834L151.62 103.837C151.794 103.837 151.968 103.852 152.132 103.881C152.3 103.913 152.462 103.957 152.617 104.01C152.705 104.042 152.794 104.08 152.876 104.122C153.848 104.59 154.519 105.584 154.519 106.737V109.399H154.52Z" fill="#8C32FF"/>
<path d="M115.115 111.442C108.827 111.442 103.73 116.539 103.73 122.826C103.73 129.114 108.827 134.211 115.115 134.211C121.403 134.211 126.5 129.114 126.5 122.826C126.5 116.539 121.403 111.442 115.115 111.442ZM116.191 128.22V130.341H114.155V128.222C112.24 127.926 111.132 126.76 111.003 125.131H113.421C113.605 125.991 114.253 126.518 115.229 126.518C116.437 126.518 116.798 125.937 116.798 125.294C116.798 124.488 116.37 124.098 114.848 123.652C112.049 122.829 111.229 121.789 111.229 120.222C111.229 118.52 112.459 117.472 114.045 117.173V115.311H116.066V117.161C118.095 117.478 118.858 118.729 118.975 120.068H116.555C116.445 119.609 116.246 118.861 114.995 118.861C113.98 118.861 113.671 119.464 113.671 119.979C113.671 120.691 114.051 121.012 115.822 121.526C118.279 122.228 119.228 123.233 119.228 125.003C119.228 126.904 118.006 127.944 116.191 128.22ZM141.844 65.9402H148.14C148.839 65.9402 149.406 65.3732 149.406 64.6739C149.406 63.9746 148.839 63.4076 148.14 63.4076H141.844C141.145 63.4076 140.578 63.9746 140.578 64.6739C140.578 65.3732 141.145 65.9402 141.844 65.9402ZM24.0195 56.0052C24.7188 56.0052 25.2858 55.4382 25.2858 54.7389V48.3857H31.6787C32.378 48.3857 32.9449 47.8187 32.9449 47.1194C32.9449 46.4201 32.378 45.8531 31.6787 45.8531H24.0195C23.3202 45.8531 22.7532 46.4201 22.7532 47.1194V54.7389C22.7532 55.4382 23.3202 56.0052 24.0195 56.0052ZM77.2459 48.3857H83.6391V54.7389C83.6391 55.4382 84.2061 56.0052 84.9054 56.0052C85.6047 56.0052 86.1717 55.4382 86.1717 54.7389V47.1194C86.1717 46.4201 85.6047 45.8531 84.9054 45.8531H77.2459C76.5466 45.8531 75.9796 46.4201 75.9796 47.1194C75.9796 47.8187 76.5466 48.3857 77.2459 48.3857ZM31.679 109.072H25.2858V102.719C25.2858 102.02 24.7188 101.453 24.0195 101.453C23.3202 101.453 22.7532 102.02 22.7532 102.719V110.339C22.7532 111.038 23.3202 111.605 24.0195 111.605H31.6787C32.378 111.605 32.9449 111.038 32.9449 110.339C32.9449 109.639 32.3783 109.072 31.679 109.072ZM84.8604 101.486C84.1611 101.486 83.5941 102.053 83.5941 102.752V109.106H77.201C76.5017 109.106 75.9347 109.673 75.9347 110.372C75.9347 111.071 76.5017 111.638 77.201 111.638H84.8604C85.5597 111.638 86.1267 111.071 86.1267 110.372V102.752C86.1267 102.053 85.5597 101.486 84.8604 101.486ZM43.0376 53.365H30.3703V66.0323H43.0376V53.365ZM40.5338 63.4921H32.937V55.9327H40.5338V63.4921ZM65.8741 66.0323H78.5413V53.365H65.8741V66.0323ZM68.4095 55.9327H76.0062V63.4921H68.4095V55.9327ZM30.4007 104.059H43.0679V91.3912H30.4007V104.059ZM32.937 93.9412H40.5338V101.501H32.937V93.9412ZM78.5249 91.3878H65.8576V104.055H78.5249V91.3878ZM76.0062 101.501H68.4095V93.9412H76.0062V101.501Z" fill="#8C32FF"/>
<path d="M73.4563 58.4593H70.9265V60.989H73.4563V58.4593Z" fill="#E827D4"/>
<path d="M37.9974 96.4602H35.4677V98.9899H37.9974V96.4602Z" fill="#E827D4"/>
<path d="M37.9974 58.4337H35.4677V60.9634H37.9974V58.4337Z" fill="#E827D4"/>
<path d="M73.4563 96.4602H70.9265V98.9899H73.4563V96.4602Z" fill="#E827D4"/>
<path d="M40.5354 83.7625V73.6633V73.2337V68.6763H30.4007V73.6633H37.9974V83.7625H40.5354Z" fill="#E827D4"/>
<path d="M78.5249 78.729H65.8576V88.8055H78.5249V78.729Z" fill="#E827D4"/>
<path d="M65.8437 73.6497H60.7785V78.7148H65.8437V73.6497Z" fill="#E827D4"/>
<path d="M35.4696 83.767H30.4045V88.8321H35.4696V83.767Z" fill="#E827D4"/>
<path d="M60.7554 69.3307V68.6374V58.4622V58.4593V55.9328H55.7048V53.4037H45.6037V55.9328H50.6543V58.4593V58.4622V68.6374H43.0711V73.7026H60.7554V69.3307Z" fill="#E827D4"/>
<path d="M70.9408 68.6374H65.8756V73.7025H70.9408V68.6374Z" fill="#E827D4"/>
<path d="M78.5249 68.6374H75.9341V76.1822H78.5249V68.6374Z" fill="#E827D4"/>
<path d="M58.2482 78.729H45.5853V83.7669H40.5354V88.8321H45.5942V96.7103H45.5961V104.059H55.7264V96.4675H63.3174V91.3941V89.9714V83.7964L58.2482 83.7945V78.729ZM55.7197 96.4608H50.6593V83.7941H55.733L55.7197 96.4608Z" fill="#E827D4"/>
</svg>
