<svg xmlns="http://www.w3.org/2000/svg" fill="#fff" width="26px" height="26px" fill-rule="evenodd" stroke-linejoin="round" stroke-miterlimit="2" clip-rule="evenodd" viewBox="0 0 64 65"><g transform="translate(0 .483)"><rect width="64" height="64" fill="none"/><path d="M34.205,133.255L34.256,140.42C34.266,141.951 32.419,143.199 30.134,143.207C27.848,143.214 25.984,141.977 25.973,140.446L25.876,126.782C25.869,125.671 26.851,124.664 28.374,124.223C29.897,123.782 31.666,123.993 32.869,124.757L70.212,148.496C71.87,149.55 71.939,151.306 70.365,152.417C68.791,153.527 66.168,153.573 64.51,152.519L34.205,133.255Z" transform="rotate(-135.001 10.8 61.445) scale(.35213 .52583)"/><path d="M34.785,110.282L36.85,109.401C37.497,109.125 37.798,108.375 37.522,107.729C37.246,107.082 36.496,106.781 35.85,107.058L33.785,107.939C33.138,108.215 32.837,108.965 33.113,109.611C33.39,110.258 34.139,110.559 34.785,110.282Z" transform="translate(-9.613 -109.087) scale(1.14477)"/><path d="M60.139,99.456L41.241,107.526C40.594,107.802 39.845,107.501 39.569,106.855C39.293,106.208 39.593,105.459 40.24,105.183L62.056,95.867C62.534,95.663 63.089,95.77 63.457,96.138C63.825,96.506 63.932,97.06 63.728,97.539L41.347,149.951C41.181,150.34 40.832,150.621 40.417,150.702C40.002,150.782 39.574,150.651 39.274,150.352L27.381,138.459C26.938,138.015 26.883,137.315 27.252,136.808L40.952,117.973L21.494,131.112C20.988,131.454 20.312,131.389 19.88,130.958L9.243,120.32C8.944,120.021 8.813,119.593 8.893,119.178C8.974,118.763 9.255,118.414 9.644,118.248L28.74,110.094C29.386,109.818 30.135,110.118 30.411,110.765C30.687,111.412 30.387,112.161 29.74,112.437L12.377,119.851L20.939,128.413L45.532,111.806C46.045,111.46 46.732,111.532 47.162,111.977C47.591,112.422 47.639,113.111 47.275,113.611L29.953,137.427L39.744,147.218L60.139,99.456Z" transform="translate(-9.613 -109.087) scale(1.14477)"/></g></svg>